<?xml version="1.0" encoding="utf-8"?>
<!-- Generator: Adobe Illustrator 24.0.3, SVG Export Plug-In . SVG Version: 6.00 Build 0)  -->
<svg version="1.1" id="Layer_1" xmlns="http://www.w3.org/2000/svg" xmlns:xlink="http://www.w3.org/1999/xlink" x="0px" y="0px"
	 viewBox="0 0 60 60" style="enable-background:new 0 0 60 60;" xml:space="preserve">
<style type="text/css">
	.st0{fill:#FFFFFF;}
</style>
<path class="st0" d="M17.4,53H7.9V22.4h9.5V53z M12.5,18.1c-3.1,0-5.5-2.5-5.5-5.5S9.5,7,12.5,7c3.1,0,5.5,2.5,5.5,5.5
	C18.1,15.6,15.6,18.1,12.5,18.1z M53,53h-9.5V38.2c0-3.6-0.1-8.1-4.9-8.1c-5,0-5.7,3.9-5.7,7.9V53h-9.5V22.4h9.1v4.2h0.1
	c1.3-2.4,4.4-4.9,9-4.9C51.2,21.7,53,28,53,36.2C53,36.2,53,53,53,53z"/>
</svg>
