<?xml version="1.0" encoding="utf-8"?>
<!-- Generator: Adobe Illustrator 24.0.3, SVG Export Plug-In . SVG Version: 6.00 Build 0)  -->
<svg version="1.1" id="Layer_1" xmlns="http://www.w3.org/2000/svg" xmlns:xlink="http://www.w3.org/1999/xlink" x="0px" y="0px"
	 viewBox="0 0 60 60" style="enable-background:new 0 0 60 60;" xml:space="preserve">
<style type="text/css">
	.st0{fill:#FFFFFF;}
</style>
<path class="st0" d="M30,8c-8.4,0-19.2,2.1-19.2,2.1l0,0C6.9,10.7,4,14,4,18v12v0v12v0c0,3.9,2.9,7.3,6.8,7.9l0,0
	c0,0,10.9,2.1,19.2,2.1s19.2-2.1,19.2-2.1l0,0c3.9-0.6,6.8-4,6.8-7.9v0V30v0V18c0-3.9-2.9-7.3-6.8-7.9l0,0C49.2,10.1,38.4,8,30,8z
	 M24,20.8L40,30l-16,9.2V20.8z"/>
</svg>
